HIERARCHY
ROOT Hips
{
	OFFSET	0.000000	0.000000	0.000000
	CHANNELS 6 Xposition Yposition Zposition Zrotation Xrotation Yrotation
	JOINT LeftHip
	{
		OFFSET	4.740440	-3.195970	-0.322709
		CHANNELS 3 Zrotation Xrotation Yrotation
		JOINT LeftKnee
		{
			OFFSET	-1.605680	-15.592300	1.005510
			CHANNELS 3 Zrotation Xrotation Yrotation
			JOINT LeftAnkle
			{
				OFFSET	-0.632401	-16.421000	-1.413730
				CHANNELS 3 Zrotation Xrotation Yrotation
				End Site
				{
					OFFSET	0.008423	-2.933000	-1.684880
				}
			}
		}
	}
	JOINT RightHip
	{
		OFFSET	-4.740440	-3.195970	-0.322709
		CHANNELS 3 Zrotation Xrotation Yrotation
		JOINT RightKnee
		{
			OFFSET	1.605680	-15.592300	1.005510
			CHANNELS 3 Zrotation Xrotation Yrotation
			JOINT RightAnkle
			{
				OFFSET	0.632401	-16.421000	-1.413730
				CHANNELS 3 Zrotation Xrotation Yrotation
				End Site
				{
					OFFSET	-0.008423	-2.933000	-1.684880
				}
			}
		}
	}
	JOINT Chest
	{
		OFFSET	0.000000	3.468200	0.078401
		CHANNELS 3 Zrotation Xrotation Yrotation
		JOINT LeftCollar
		{
			OFFSET	3.857650	15.070700	-0.011583
			CHANNELS 3 Zrotation Xrotation Yrotation
			JOINT LeftShoulder
			{
				OFFSET	3.979720	-1.940530	-0.165223
				CHANNELS 3 Zrotation Xrotation Yrotation
				JOINT LeftElbow
				{
					OFFSET	0.615844	-10.986600	-0.673886
					CHANNELS 3 Zrotation Xrotation Yrotation
					JOINT LeftWrist
					{
						OFFSET	0.826843	-10.854500	1.034220
						CHANNELS 3 Zrotation Xrotation Yrotation
						End Site
						{
							OFFSET	-1.679080	-8.456540	0.936217
						}
					}
				}
			}
		}
		JOINT RightCollar
		{
			OFFSET	-3.857650	15.070700	-0.011583
			CHANNELS 3 Zrotation Xrotation Yrotation
			JOINT RightShoulder
			{
				OFFSET	-3.979720	-1.940530	-0.165223
				CHANNELS 3 Zrotation Xrotation Yrotation
				JOINT RightElbow
				{
					OFFSET	-0.615845	-10.986600	-0.673886
					CHANNELS 3 Zrotation Xrotation Yrotation
					JOINT RightWrist
					{
						OFFSET	-0.826843	-10.854500	1.034220
						CHANNELS 3 Zrotation Xrotation Yrotation
						End Site
						{
							OFFSET	1.679080	-8.456540	0.936217
						}
					}
				}
			}
		}
		JOINT Neck
		{
			OFFSET	0.000000	15.101400	0.055730
			CHANNELS 3 Zrotation Xrotation Yrotation
			JOINT Head
			{
				OFFSET	0.000000	4.185120	1.488260
				CHANNELS 3 Zrotation Xrotation Yrotation
				End Site
				{
					OFFSET	0.000000	7.773420	-0.106016
				}
			}
		}
	}
}
MOTION
Frames:     21
Frame Time: 1.0
2.525769	37.627438	-5.008272	4.046218	-9.756648	-12.119053	-5.588056	5.988222	-0.216810	-0.573275	1.807009	4.602962	1.838464	0.356896	6.102486	-18.517586	-0.718769	-6.318618	0.709948	20.136068	7.114001	11.081698	-10.155589	4.093346	-6.163199	8.832610	-0.579792	-2.740097	-0.671463	1.086197	5.663286	1.797467	4.163929	-6.581055	-11.003656	-8.799827	12.778725	6.874338	-23.707684	-0.189771	-0.724775	1.462100	-4.386984	-2.008489	2.558828	0.318146	-7.812067	8.677585	-18.227707	-1.157551	19.641146	-0.230088	3.312271	1.711639	-0.346362	2.320665	1.789530	
2.523456	37.627842	-5.006774	4.046218	-9.756648	-12.119053	-5.583533	5.999652	-0.177463	-0.576477	1.795963	4.563010	1.838464	0.356896	6.102486	-18.534018	-0.715789	-6.323225	0.725238	20.135677	7.107850	11.083294	-10.154175	4.104211	-6.157441	8.836370	-0.568266	-2.745897	-0.674678	1.073617	5.663286	1.797467	4.163929	-6.581055	-11.003656	-8.799827	12.790450	6.869281	-23.709415	-0.195581	-0.728547	1.449676	-4.386984	-2.008489	2.558828	0.318146	-7.812067	8.677585	-18.227707	-1.157551	19.641146	-0.230234	3.307041	1.715083	-0.385164	2.322684	1.806174	
2.522592	37.627991	-5.006214	4.046218	-9.756648	-12.119053	-5.581847	6.003920	-0.162776	-0.577675	1.791841	4.548098	1.838464	0.356896	6.102486	-18.539289	-0.714838	-6.324692	0.730309	20.136024	7.098613	11.084875	-10.152776	4.114956	-6.154390	8.838366	-0.562136	-2.748972	-0.676385	1.066932	5.663286	1.797467	4.163929	-6.581055	-11.003656	-8.799827	12.802896	6.863913	-23.711243	-0.198661	-0.730550	1.443074	-4.386984	-2.008489	2.558828	0.318146	-7.812067	8.677585	-18.227707	-1.157551	19.641146	-0.225405	3.301162	1.743938	-0.432267	2.327401	1.809255	
2.519907	37.628456	-5.004475	4.046218	-9.756648	-12.119053	-5.576604	6.017184	-0.117124	-0.581411	1.779032	4.501741	1.838464	0.356896	6.102486	-18.555044	-0.711982	-6.329123	0.745002	20.135736	7.091188	11.086633	-10.151203	4.126919	-6.144517	8.844813	-0.542369	-2.758917	-0.681897	1.045352	5.663286	1.797467	4.163929	-6.581055	-11.003656	-8.799827	12.815554	6.858457	-23.713093	-0.208623	-0.737016	1.421760	-4.386984	-2.008489	2.558828	0.318146	-7.812067	8.677585	-18.227707	-1.157551	19.641146	-0.241969	3.288717	1.763468	-0.463209	2.333807	1.807453	
2.519012	37.628613	-5.003893	4.046218	-9.756648	-12.119053	-5.574859	6.021614	-0.101882	-0.582660	1.774756	4.486265	1.838464	0.356896	6.102486	-18.560236	-0.711047	-6.330566	0.750034	20.136200	7.080223	11.088470	-10.149584	4.139375	-6.134111	8.851619	-0.521515	-2.771747	-0.685746	1.025128	5.665662	1.795219	4.161572	-6.581055	-11.003656	-8.799827	12.821929	6.855304	-23.709833	-0.226542	-0.746270	1.406539	-4.379773	-2.005681	2.551655	0.318146	-7.812067	8.677585	-18.227707	-1.157551	19.641146	-0.265629	3.275408	1.781123	-0.481142	2.340489	1.800683	
2.516368	37.629070	-5.002171	4.046218	-9.756648	-12.119053	-5.569713	6.034715	-0.056850	-0.586347	1.762113	4.440539	1.838464	0.356896	6.102486	-18.581324	-0.707213	-6.336477	0.769606	20.135572	7.074253	11.090241	-10.148018	4.151398	-6.126945	8.856305	-0.507163	-2.786419	-0.685468	1.022302	5.673608	1.790096	4.154099	-6.582254	-11.003603	-8.804920	12.841608	6.845028	-23.694021	-0.242125	-0.753676	1.399251	-4.371649	-2.002539	2.543574	0.318146	-7.812067	8.677585	-18.227707	-1.157551	19.641146	-0.299841	3.261116	1.818767	-0.490770	2.350016	1.787015	
2.515349	37.629040	-5.001228	4.048974	-9.756741	-12.114022	-5.570299	6.038778	-0.047398	-0.587497	1.758162	4.426257	1.838464	0.356896	6.102486	-18.594749	-0.704274	-6.343952	0.779671	20.135643	7.065072	11.092049	-10.146407	4.163655	-6.121495	8.861168	-0.496946	-2.798429	-0.693529	1.029421	5.679194	1.792297	4.136297	-6.585947	-11.007435	-8.811363	12.849909	6.845503	-23.688410	-0.258864	-0.761536	1.392292	-4.362548	-1.999215	2.539232	0.317271	-7.812185	8.678139	-18.227613	-1.155703	19.636251	-0.309180	3.255637	1.807394	-0.530656	2.350983	1.823216	
2.511767	37.628914	-4.997893	4.058960	-9.757040	-12.095866	-5.572628	6.052899	-0.014985	-0.591542	1.744386	4.376437	1.838464	0.356896	6.102486	-18.610476	-0.699641	-6.361760	0.785287	20.136044	7.054649	11.093837	-10.144834	4.175765	-6.124918	8.863579	-0.506323	-2.803711	-0.697059	1.029722	5.681793	1.795033	4.145967	-6.588682	-11.034683	-8.829762	12.847696	6.853940	-23.640181	-0.272561	-0.767195	1.394098	-4.352438	-1.996128	2.547187	0.314306	-7.811901	8.666637	-18.227507	-1.153486	19.630371	-0.363254	3.238660	1.875288	-0.518205	2.364958	1.789829	
2.510330	37.628910	-4.996609	4.062421	-9.757133	-12.089572	-5.573056	6.058746	-0.000448	-0.593219	1.738688	4.355812	1.838464	0.356896	6.102486	-18.613897	-0.698407	-6.367368	0.785421	20.136433	7.048716	11.094709	-10.144064	4.181713	-6.116749	8.870522	-0.490834	-2.815852	-0.704657	1.014855	5.683762	1.796582	4.143620	-6.587325	-11.050373	-8.835626	12.842604	6.865088	-23.600567	-0.293855	-0.777566	1.381444	-4.342027	-1.992396	2.543288	0.312932	-7.812315	8.672907	-18.227278	-1.148990	19.618500	-0.392739	3.228523	1.862683	-0.514715	2.367776	1.796937	
2.509522	37.628277	-4.995052	4.072694	-9.757418	-12.070915	-5.581039	6.059005	-0.016180	-0.593343	1.738253	4.354409	1.838464	0.356896	6.102486	-18.624060	-0.694752	-6.383989	0.785791	20.137526	7.032037	11.097174	-10.141899	4.198410	-6.117018	8.875103	-0.493966	-2.828129	-0.716184	1.033534	5.690964	1.802981	4.128507	-6.593581	-11.063087	-8.856050	13.023932	6.790182	-23.489119	-0.311530	-0.785604	1.376581	-4.331280	-1.989200	2.553871	0.309227	-7.812325	8.666211	-18.227030	-1.143910	19.605064	-0.411761	3.219510	1.873921	-0.500566	2.372030	1.771208	
2.509303	37.628086	-4.994597	4.075832	-9.757503	-12.065232	-5.583530	6.058944	-0.021391	-0.593343	1.738253	4.354409	1.838464	0.356896	6.102486	-18.627161	-0.693643	-6.389052	0.785915	20.137871	7.026680	11.097960	-10.141202	4.203779	-6.112423	8.879560	-0.485518	-2.837729	-0.724092	1.036748	5.694602	1.806026	4.116817	-6.600730	-11.073812	-8.864112	13.136638	6.754313	-23.474129	-0.323831	-0.791808	1.367081	-4.325863	-1.987451	2.556130	0.307591	-7.812850	8.674367	-18.225449	-1.137511	19.596107	-0.417637	3.215090	1.859122	-0.500566	2.372030	1.771208	
2.509272	37.628056	-4.994533	4.076276	-9.757500	-12.064444	-5.583882	6.058921	-0.022114	-0.593343	1.738253	4.354409	1.838464	0.356896	6.102486	-18.627598	-0.693502	-6.389758	0.786243	20.138838	7.012086	11.100109	-10.139316	4.218390	-6.106242	8.883801	-0.473223	-2.847014	-0.732049	1.041304	5.698850	1.810919	4.118593	-6.611685	-11.083672	-8.886729	13.554595	6.595488	-23.490343	-0.346400	-0.801265	1.368700	-4.309768	-1.982308	2.564183	0.303382	-7.812906	8.667824	-18.219128	-1.127625	19.605999	-0.423232	3.210883	1.845044	-0.536060	2.372350	1.804772	
2.509272	37.628056	-4.994533	4.076276	-9.757500	-12.064444	-5.583882	6.058921	-0.022114	-0.593343	1.738253	4.354409	1.838464	0.356896	6.102486	-18.627598	-0.693502	-6.389758	0.786352	20.139162	7.007206	11.100828	-10.138688	4.223276	-6.103036	8.885903	-0.466804	-2.852868	-0.738285	1.053020	5.702419	1.814219	4.106092	-6.618885	-11.093122	-8.894577	13.733246	6.536715	-23.515648	-0.354836	-0.805051	1.366856	-4.304526	-1.980665	2.567436	0.301803	-7.813098	8.668945	-18.216516	-1.122719	19.607643	-0.425993	3.208805	1.838102	-0.536060	2.372350	1.804772	
2.509272	37.628056	-4.994533	4.076276	-9.757500	-12.064444	-5.583882	6.058921	-0.022114	-0.593343	1.738253	4.354409	1.838464	0.356896	6.102486	-18.627598	-0.693502	-6.389758	0.786486	20.139536	7.001835	11.101605	-10.138012	4.228653	-6.093649	8.892056	-0.447975	-2.865709	-0.746841	1.050884	5.707231	1.818026	4.106745	-6.629241	-11.102600	-8.915547	14.242701	6.347760	-23.584587	-0.380010	-0.816279	1.361890	-4.288694	-1.975716	2.577983	0.296885	-7.813743	8.673495	-18.191994	-1.093933	19.685667	-0.442506	3.199886	1.833206	-0.557647	2.375339	1.818836	
2.509272	37.628056	-4.994533	4.076276	-9.757500	-12.064444	-5.583882	6.058921	-0.022114	-0.593343	1.738253	4.354409	1.838464	0.356896	6.102486	-18.627598	-0.693502	-6.389758	0.786486	20.139536	7.001835	11.101605	-10.138012	4.228653	-6.090716	8.893982	-0.442094	-2.872474	-0.750851	1.062007	5.711635	1.818574	4.088996	-6.634605	-11.111701	-8.916565	14.390904	6.299897	-23.605843	-0.388483	-0.819984	1.360935	-4.283140	-1.973975	2.581520	0.294911	-7.814473	8.685601	-18.183189	-1.081139	19.702187	-0.467200	3.192915	1.851110	-0.549465	2.380048	1.810079	
2.508358	37.628212	-4.993948	4.076276	-9.757500	-12.064444	-5.582101	6.063421	-0.006430	-0.594631	1.733917	4.338485	1.838464	0.356896	6.102486	-18.627598	-0.693502	-6.389758	0.786486	20.139536	7.001835	11.101605	-10.138012	4.228653	-6.085132	8.897642	-0.430893	-2.882432	-0.755822	1.067740	5.716791	1.819259	4.076608	-6.638884	-11.116552	-8.923003	14.701390	6.252955	-23.612616	-0.410509	-0.828959	1.364923	-4.266632	-1.968760	2.590981	0.290334	-7.814672	8.681229	-18.169477	-1.065162	19.738792	-0.495307	3.185677	1.850901	-0.565466	2.383370	1.837126	
2.507380	37.628376	-4.993318	4.076276	-9.757500	-12.064444	-5.580194	6.068238	0.010242	-0.596017	1.729276	4.321554	1.838464	0.356896	6.102486	-18.627598	-0.693502	-6.389758	0.786486	20.139536	7.001835	11.101605	-10.138012	4.228653	-6.085132	8.897642	-0.430893	-2.887594	-0.756886	1.086463	5.722569	1.818349	4.057805	-6.638884	-11.116552	-8.923003	14.746269	6.238871	-23.613876	-0.415905	-0.830725	1.370222	-4.261195	-1.967028	2.593779	0.288782	-7.814922	8.683872	-18.169312	-1.061350	19.728682	-0.506083	3.183991	1.856414	-0.568226	2.384864	1.845250	
2.506469	37.628536	-4.992730	4.076276	-9.757500	-12.064444	-5.578413	6.072724	0.025749	-0.597315	1.724954	4.305806	1.838464	0.356896	6.102486	-18.627598	-0.693502	-6.389758	0.786486	20.139536	7.001835	11.101605	-10.138012	4.228653	-6.085132	8.897642	-0.430893	-2.893066	-0.757359	1.104728	5.728628	1.816886	4.039511	-6.638884	-11.116552	-8.923003	14.791079	6.242854	-23.617872	-0.431963	-0.835988	1.386016	-4.244987	-1.961872	2.602365	0.284137	-7.815614	8.689815	-18.165073	-1.048218	19.716646	-0.535637	3.179348	1.871530	-0.539946	2.388690	1.833617	
2.505609	37.628685	-4.992176	4.076276	-9.757500	-12.064444	-5.576737	6.076958	0.040391	-0.598537	1.720876	4.290936	1.838464	0.356896	6.102486	-18.627598	-0.693502	-6.389758	0.786566	20.139772	6.997803	11.102211	-10.137465	4.232692	-6.085132	8.897642	-0.430893	-2.895836	-0.757497	1.113739	5.731687	1.816066	4.030499	-6.638884	-11.116552	-8.923003	14.797768	6.259666	-23.638615	-0.436846	-0.837592	1.390828	-4.240057	-1.960306	2.605117	0.282692	-7.815838	8.692007	-18.161028	-1.042291	19.724005	-0.545381	3.177882	1.876520	-0.541476	2.389976	1.840049	
2.504828	37.628819	-4.991670	4.076276	-9.757500	-12.064444	-5.575217	6.080817	0.053735	-0.599646	1.717159	4.277386	1.838464	0.356896	6.102486	-18.627598	-0.693502	-6.389758	0.786896	20.140755	6.982803	11.104429	-10.135517	4.247718	-6.085132	8.897642	-0.430893	-2.904417	-0.757198	1.139846	5.741084	1.812982	4.004440	-6.638884	-11.116552	-8.923003	14.801088	6.277228	-23.761272	-0.450840	-0.842203	1.404601	-4.225936	-1.955776	2.611807	0.278783	-7.816445	8.698029	-18.154634	-1.029102	19.724497	-0.545381	3.177882	1.876520	-0.575700	2.390242	1.872426	
2.504459	37.628883	-4.991432	4.076276	-9.757500	-12.064444	-5.574496	6.082635	0.060027	-0.600173	1.715408	4.270994	1.838464	0.356896	6.102486	-18.627598	-0.693502	-6.389758	0.787012	20.141100	6.977607	11.105193	-10.134844	4.252918	-6.085132	8.897642	-0.430893	-2.908678	-0.753888	1.145257	5.745441	1.809057	3.999337	-6.638884	-11.116552	-8.923003	14.802339	6.284373	-23.814558	-0.455261	-0.843662	1.408962	-4.221480	-1.954323	2.613352	0.277637	-7.816654	8.700323	-18.152023	-1.024612	19.727390	-0.545381	3.177882	1.876520	-0.586294	2.390323	1.882435	
